<svg xmlns="http://www.w3.org/2000/svg" width="900" height="620" viewBox="0 0 900 620" role="img" aria-label="Artea Signal board preview">
  <rect width="900" height="620" fill="#f4efe6"/>
  <rect x="52" y="54" width="796" height="512" rx="18" fill="#ffffff" stroke="#d8d2c5" stroke-width="3"/>
  <rect x="86" y="92" width="190" height="86" rx="12" fill="#d9f3ee"/>
  <rect x="306" y="92" width="190" height="86" rx="12" fill="#ffe3dc"/>
  <rect x="526" y="92" width="190" height="86" rx="12" fill="#dceafe"/>
  <rect x="86" y="220" width="300" height="118" rx="14" fill="#ffffff" stroke="#dedbd1" stroke-width="3"/>
  <rect x="414" y="220" width="300" height="118" rx="14" fill="#ffffff" stroke="#dedbd1" stroke-width="3"/>
  <rect x="86" y="368" width="628" height="118" rx="14" fill="#ffffff" stroke="#dedbd1" stroke-width="3"/>
  <rect x="112" y="246" width="72" height="66" rx="10" fill="#dc5f4a"/>
  <rect x="440" y="246" width="72" height="66" rx="10" fill="#3b6ea8"/>
  <rect x="112" y="394" width="72" height="66" rx="10" fill="#b87917"/>
  <rect x="204" y="252" width="134" height="12" rx="6" fill="#181916"/>
  <rect x="204" y="278" width="94" height="10" rx="5" fill="#686a61"/>
  <rect x="204" y="300" width="150" height="10" rx="5" fill="#d8d2c5"/>
  <rect x="532" y="252" width="134" height="12" rx="6" fill="#181916"/>
  <rect x="532" y="278" width="98" height="10" rx="5" fill="#686a61"/>
  <rect x="532" y="300" width="150" height="10" rx="5" fill="#d8d2c5"/>
  <rect x="204" y="400" width="210" height="12" rx="6" fill="#181916"/>
  <rect x="204" y="426" width="136" height="10" rx="5" fill="#686a61"/>
  <rect x="204" y="448" width="262" height="10" rx="5" fill="#d8d2c5"/>
</svg>
